<svg width="261" height="42" viewBox="0 0 261 42" fill="none" xmlns="http://www.w3.org/2000/svg">
<path d="M53.6992 6.87909C54.631 7.03926 55.5551 7.30072 56.457 7.66522L59.0986 3.09003L62.7783 5.21503L60.1016 9.85175C60.8213 10.4547 61.4662 11.1226 62.0322 11.842L66.498 9.26385L68.623 12.9435L64.1006 15.5549C64.409 16.3976 64.6337 17.2692 64.7705 18.1564H69.9229V22.4055H64.75C64.6139 23.2328 64.399 24.0545 64.1025 24.8605L68.624 27.4719L66.499 31.1516L62.0303 28.5715C61.5418 29.1935 61.0064 29.7632 60.4316 30.2785L63.166 35.0139L59.4854 37.1389L56.8545 32.5822C55.8447 33.0258 54.7845 33.3441 53.6992 33.5314V38.6301H49.4492V33.5891C48.5516 33.458 47.6591 33.2351 46.7852 32.9162L44.2363 37.3322L40.5566 35.2072L43.0693 30.8527C42.3093 30.259 41.6262 29.5958 41.0254 28.8762L36.5068 31.4865L34.3828 27.8068L38.8516 25.2258C38.4889 24.3166 38.225 23.3707 38.0654 22.4055H32.8379V18.1564H38.0391C38.1927 17.1539 38.4615 16.1584 38.8506 15.1887L34.3828 12.6096L36.5078 8.92889L41.0273 11.5383C41.7383 10.6851 42.5414 9.93741 43.4121 9.29999L40.9424 5.02167L44.6221 2.89764L47.1982 7.35858C47.9317 7.11864 48.685 6.94162 49.4492 6.82928V1.5451H53.6992V6.87909ZM54.3037 15.1896C51.5323 13.5897 47.9889 14.5395 46.3887 17.3107C44.7887 20.0822 45.7383 23.6257 48.5098 25.2258C51.2812 26.8257 54.8247 25.8761 56.4248 23.1047C58.0245 20.3333 57.075 16.7897 54.3037 15.1896Z" fill="black"/>
<path d="M126.708 6.87909C127.64 7.03927 128.565 7.30058 129.467 7.66522L132.108 3.09003L135.789 5.21503L133.111 9.85175C133.831 10.4545 134.475 11.1227 135.041 11.842L139.509 9.26385L141.634 12.9435L137.109 15.5549C137.418 16.3976 137.643 17.2692 137.779 18.1564H142.934V22.4055H137.76C137.624 23.2329 137.408 24.0545 137.111 24.8605L141.634 27.4719L139.509 31.1516L135.039 28.5715C134.551 29.1931 134.016 29.7625 133.441 30.2775L136.176 35.0139L132.496 37.1389L129.864 32.5812C128.854 33.0251 127.794 33.344 126.708 33.5314V38.6301H122.459V33.5891C121.562 33.4581 120.67 33.235 119.796 32.9162L117.247 37.3322L113.566 35.2072L116.079 30.8537C115.319 30.2602 114.637 29.5966 114.036 28.8771L109.518 31.4865L107.393 27.8068L111.86 25.2267C111.498 24.3174 111.235 23.371 111.075 22.4055H105.848V18.1564H111.049C111.202 17.1536 111.471 16.1578 111.86 15.1877L107.394 12.6096L109.518 8.92889L114.037 11.5383C114.748 10.6849 115.551 9.93649 116.422 9.29901L113.952 5.02167L117.633 2.89764L120.208 7.35858C120.941 7.11867 121.695 6.94159 122.459 6.82928V1.5451H126.708V6.87909ZM127.313 15.1896C124.542 13.5896 120.998 14.5393 119.397 17.3107C117.798 20.0821 118.747 23.6256 121.519 25.2258C124.29 26.8259 127.834 25.8762 129.435 23.1047C131.034 20.3333 130.085 16.7897 127.313 15.1896Z" fill="black"/>
<path d="M13.6644 28.4108L18.0704 38.5947H29.6713L23.3131 22.7402C26.6595 20.0206 28.2212 16.8381 28.2212 12.8456C28.2212 9.31591 26.7153 5.67059 24.2613 3.35606C21.9188 1.15726 18.4051 0 14.1664 0H0V38.5947H11.0431V10.4154H12.9951C14.3894 10.4154 15.1703 10.5311 15.728 10.8204C16.5646 11.2832 17.0666 12.2091 17.0666 13.1927C17.0666 15.1601 15.9511 16.2016 13.6644 16.2595V28.4108Z" fill="black"/>
<path d="M73.7852 1.54524V25.0377C73.7852 28.5673 74.7891 32.2127 76.3507 34.6429C78.8047 38.3462 83.3223 40.7186 87.9515 40.7186C95.8713 40.7186 102.174 34.1801 102.174 26.0214C102.174 17.9784 95.8713 11.3819 88.2304 11.3819C87.84 11.3819 87.4496 11.3819 86.5572 11.4977V22.5495C87.1707 22.3181 87.5611 22.2024 88.063 22.2024C90.1824 22.2024 91.8556 23.9961 91.8556 26.2528C91.8556 28.5095 90.0709 30.3032 87.8957 30.3032C85.3302 30.3032 83.9916 28.3359 83.9916 24.6326V1.54517L73.7852 1.54524Z" fill="black"/>
<path d="M260.285 1.96891C258.779 1.39033 257.385 1.15887 255.767 1.15887C248.796 1.15887 243.107 7.23453 243.107 14.6989C243.107 17.592 243.943 20.543 245.561 23.6098C247.122 26.3872 247.122 26.4451 247.122 27.313C247.122 28.9911 245.672 30.3219 243.832 30.3219C242.828 30.3219 242.159 30.0904 240.932 29.2804V40.3901C242.828 41.3738 244.278 41.7209 246.23 41.7209C253.759 41.7209 259.504 35.8189 259.504 28.0653C259.504 25.4614 258.891 23.3205 257.217 20.3116C255.488 17.187 255.377 16.9555 255.377 15.7982C255.377 14.0623 256.771 12.5579 258.389 12.5579C258.946 12.5579 259.337 12.6737 260.285 12.963V1.96891Z" fill="#3988CD"/>
<path d="M215.666 40.9107C216.838 40.9681 217.674 40.9681 218.176 40.9681C222.08 40.9681 225.259 40.2159 228.159 38.5957C234.071 35.2397 237.641 28.5854 237.641 21.1211C237.641 14.3511 234.685 8.56473 229.554 5.3244C226.096 3.18346 221.913 2.14197 216.447 2.14197H202.002V40.7367H213.045V13.1938H216.838C220.184 13.1938 222.359 13.7724 223.865 15.0454C225.427 16.3763 226.319 18.5751 226.319 21.1211C226.319 23.7828 225.259 26.3288 223.642 27.7175C222.136 28.9326 219.849 29.5113 216.67 29.5113H215.666V40.9107Z" fill="#DB5679"/>
<path d="M194.584 2.14276H183.541V40.7375H194.584V2.14276Z" fill="#FECC1B"/>
<path d="M179.805 2.14276H168.483L160.452 19.4438L167.368 40.7375H179.805L171.551 19.6753L179.805 2.14276ZM158.611 2.14276H147.568V40.7375H158.611V2.14276Z" fill="#26BB9E"/>
</svg>
